<?xml version="1.0" standalone="no"?>
<!DOCTYPE svg PUBLIC "-//W3C//DTD SVG 1.1//EN" "http://www.w3.org/Graphics/SVG/1.1/DTD/svg11.dtd">
<svg xmlns:dc="http://purl.org/dc/elements/1.1/" xmlns:cc="http://creativecommons.org/ns#" xmlns:rdf="http://www.w3.org/1999/02/22-rdf-syntax-ns#" xmlns:svg="http://www.w3.org/2000/svg" xmlns="http://www.w3.org/2000/svg" xmlns:sodipodi="http://sodipodi.sourceforge.net/DTD/sodipodi-0.dtd" xmlns:inkscape="http://www.inkscape.org/namespaces/inkscape" version="1.1" id="svg2" xml:space="preserve" width="415.7466735839844" height="219.2133331298828" viewBox="0 0 415.74667 219.21333" sodipodi:docname="MSS_logo.svg" inkscape:version="1.0.2-2 (e86c870879, 2021-01-15)"><metadata id="metadata8"><rdf:RDF><cc:Work rdf:about=""><dc:format>image/svg+xml</dc:format><dc:type rdf:resource="http://purl.org/dc/dcmitype/StillImage"/><dc:title/></cc:Work></rdf:RDF></metadata><defs id="defs6"/><sodipodi:namedview pagecolor="#ffffff" bordercolor="#666666" borderopacity="1" objecttolerance="10" gridtolerance="10" guidetolerance="10" inkscape:pageopacity="0" inkscape:pageshadow="2" inkscape:window-width="1600" inkscape:window-height="837" id="namedview4" showgrid="false" inkscape:zoom="0.94565127" inkscape:cx="145.25389" inkscape:cy="171.24039" inkscape:window-x="-8" inkscape:window-y="-8" inkscape:window-maximized="1" inkscape:current-layer="g10"/><g id="g10" inkscape:groupmode="layer" inkscape:label="ink_ext_XXXXXX" transform="matrix(1.3333333,0,0,-1.3333333,0,219.21333)"><g id="g12" transform="scale(0.1)"><path d="m 2976.2,966.148 c -0.15,4.7 0.62,21.77 -4.49,23.79 -3.06,1.203 -3.24,-19.629 -3.16,-22.321 0.11,-3.5 0.25,-23.957 4.63,-23.898 4.12,0.051 3.12,19.211 3.02,22.429 m -8.76,87.842 c -1.29,7.58 -2.23,19.7 -7.77,25.48 -1.77,1.85 -0.93,-15.33 -0.48,-18 1.17,-6.91 2.01,-21.54 7.97,-26.05 1.77,-1.34 0.69,16.13 0.28,18.57 m -10.75,-84.81 c -0.2,6.437 -0.66,25.508 -9.07,27.16 -8.3,1.621 -8.15,-20.801 -8.01,-25.539 0.18,-5.793 0.98,-27.352 9.63,-27.301 8.16,0.059 7.61,20.398 7.45,25.68 m -8.79,166.18 c -2.69,8.52 -5.51,18.22 -10.86,25.49 -2.56,3.49 0.52,-10.54 1.31,-13.02 2.74,-8.61 5.42,-19.23 11.17,-26.38 1.76,-2.19 -0.86,11.49 -1.62,13.91 m -13.6,-37.18 c -7.55,4.2 -5.43,-17.19 -4.88,-20.53 1.34,-8.23 4.15,-25.95 13.15,-29.44 7.36,-2.85 4.83,17.83 4.27,21.18 -1.45,8.65 -4.08,24.07 -12.54,28.79 m -0.63,-309.071 c -8.9,-5.039 -12.72,-20.449 -14.91,-29.64 -0.74,-3.102 -3.74,-22.551 3.53,-17.41 8.29,5.851 11.96,19.429 14.24,28.769 0.7,2.852 4.12,22.242 -2.86,18.281 m -8.72,371.911 c -3.04,9.6 -7.51,21.75 -15.59,28.28 -7.1,5.75 -3.53,-11.42 -2.56,-14.56 3,-9.68 7.62,-23.24 16.3,-29.31 6.74,-4.71 2.7,12.89 1.85,15.59 m -2.33,36.28 c 3.07,-4.32 -1.49,7.03 -2.53,9.2 -3.9,8.25 -8.08,16.63 -13.39,24.06 -3.82,5.35 0.85,-5.63 2.07,-8.15 4.12,-8.53 8.34,-17.37 13.85,-25.11 m -28.66,41.87 c -4.51,9.26 -10.23,18.97 -17.82,26.05 -6.7,6.26 -3.04,-4.93 -1.24,-8.67 4.63,-9.61 10.58,-20.07 18.65,-27.23 6.42,-5.69 1.9,6.8 0.41,9.85 m -10.86,-50.42 c -3.36,11.28 -10.51,25.17 -21.48,30.73 -11.02,5.58 -10.32,-10.13 -8.48,-16.69 3.25,-11.56 10.83,-26.84 22.54,-31.85 10.98,-4.69 9.2,11.84 7.42,17.81 m -25.46,112.99 c -5.58,8.12 -11.95,15.98 -19.1,22.78 -5.77,5.49 -4.02,0.78 -0.89,-3.71 5.88,-8.47 12.52,-16.76 19.99,-23.89 5.86,-5.59 2.62,1.01 0,4.82 m -29.81,-0.03 c -8.98,5.56 -9.58,-2.97 -6.51,-9.83 4.91,-10.98 13.59,-22.66 24.18,-28.72 9.32,-5.31 8.2,5.08 5.39,11.08 -4.93,10.51 -13.08,21.28 -23.06,27.47 m -11.42,-85.21 c -3.49,13.49 -14.11,27.99 -27.8,32.42 -13.24,4.3 -18.58,-8.22 -15.98,-19.38 3.26,-14.02 14.57,-29.68 29.04,-33.59 13.44,-3.63 17.5,9.93 14.74,20.55 m -2.99,123.64 c -6.17,8.94 -14.5,17.12 -23.52,23.17 -6.15,4.13 -10.12,3.05 -5.42,-3.97 6.3,-9.42 15.17,-18.11 24.66,-24.31 6.87,-4.49 8.65,-1.23 4.28,5.11 m -38.82,47.4 c -6.88,7.03 -14.82,13.25 -22.99,18.72 -3.65,2.44 -10.81,6.01 -5.14,0.23 7.22,-7.36 15.61,-13.84 24.12,-19.6 4.32,-2.92 9.65,-5.12 4.01,0.65 m -51.8,12.96 c -5.72,2.62 -16.83,4.2 -11.42,-5.09 6.11,-10.48 17.98,-18.9 28.95,-23.68 6.59,-2.88 15.9,-2.83 10.18,6.2 -6.25,9.86 -17.19,17.77 -27.71,22.57 m -8.52,24.26 c -7.14,7.44 -16.91,12.97 -26.17,17.35 -2.9,1.37 -15.79,5.96 -10.17,-0.22 7.2,-7.92 17.75,-13.64 27.34,-18.13 3.56,-1.67 15.25,-5.52 9,1 m -47.09,-13.48 c -5.57,10.81 -19.62,17.65 -30.8,20.88 -5.72,1.64 -22.78,3.67 -18.12,-7.15 4.98,-11.54 20.47,-18.79 31.89,-21.91 6.29,-1.71 22.64,-2.72 17.03,8.18 m -29.63,46.08 c -6.53,7.91 -18.74,12.12 -28.25,15.02 -2.6,0.8 -20.43,4.74 -15.87,-1.68 6.02,-8.49 19.69,-12.83 29.25,-15.69 3,-0.9 20.49,-4.44 14.87,2.35 m -53.35,-93.99 c -3.1,14.89 -21.04,23.53 -34.76,25.29 -11.38,1.46 -29.94,-2.59 -27.86,-17.66 2.17,-15.71 21.46,-24.86 35.51,-26.48 11.69,-1.35 30.29,3.5 27.11,18.85 m -18.98,72.76 c -3.86,11.59 -21.19,16.57 -31.88,18.14 -6.75,1 -27.05,1.63 -24.46,-10.06 2.74,-12.33 21.92,-17.62 32.57,-19.1 6.87,-0.95 27.77,-1.01 23.77,11.02 m -19.17,45.34 c -4.62,8.25 -20.15,10.6 -28.59,11.93 -3.29,0.52 -24.05,2.93 -21.37,-4.12 3.32,-8.75 21.23,-11.28 29.2,-12.51 3.24,-0.5 24.78,-2.5 20.76,4.7 m -62.83,-345.37 c -0.59,30.03 -27.84,53.16 -57.08,53.41 -29.17,0.26 -56.3,-22.55 -56.42,-52.56 -0.11,-30.57 27.54,-54.43 57.27,-54.61 29.55,-0.18 56.83,23.34 56.23,53.76 m -14.13,134.24 c -0.86,22.37 -24.16,36.16 -44.63,36.44 -20.24,0.28 -43.47,-12.93 -43.64,-35.3 -0.17,-23.09 23.85,-37.62 44.77,-37.86 20.67,-0.24 44.38,13.75 43.5,36.72 m -12.89,105.15 c -0.99,15.56 -20.83,22.08 -33.86,22.32 -12.65,0.22 -32.64,-5.57 -32.83,-21.18 -0.2,-16.26 20.74,-23.28 33.97,-23.49 12.85,-0.2 33.75,6.13 32.72,22.35 m -5.9,73.47 c -1.23,11.98 -21.19,14.54 -30.37,14.74 -8.54,0.18 -29.02,-1.54 -29.26,-13.54 -0.26,-12.59 21.49,-15.47 30.47,-15.65 8.38,-0.16 30.45,1.9 29.16,14.45 m -5.93,44.89 c -1.44,8.12 -20.67,8.33 -26.8,8.46 -5.27,0.12 -25.46,0.62 -25.73,-7.3 -0.29,-8.29 21.45,-8.87 26.9,-8.99 4.68,-0.1 27.05,-0.18 25.63,7.83 m -85.43,-4.57 c 2.67,7.05 -18.08,4.64 -21.37,4.12 -8.45,-1.33 -23.98,-3.68 -28.59,-11.93 -4.02,-7.2 17.52,-5.2 20.75,-4.7 7.97,1.23 25.89,3.76 29.21,12.51 m -37.26,-35.01 c -10.69,-1.57 -28.02,-6.55 -31.87,-18.14 -4,-12.03 16.9,-11.97 23.76,-11.02 10.65,1.48 29.83,6.77 32.57,19.1 2.6,11.69 -17.7,11.06 -24.46,10.06 m -16.09,-65.61 c -13.73,-1.76 -31.66,-10.4 -34.76,-25.29 -3.19,-15.35 15.41,-20.2 27.11,-18.85 14.05,1.62 33.34,10.77 35.51,26.48 2.07,15.07 -16.48,19.12 -27.86,17.66 m -43.99,82.04 c 4.55,6.42 -13.27,2.48 -15.87,1.68 -9.51,-2.9 -21.73,-7.11 -28.26,-15.02 -5.61,-6.79 11.87,-3.25 14.88,-2.35 9.55,2.86 23.22,7.2 29.25,15.69 m -42.96,-38.54 c -11.18,-3.23 -25.23,-10.07 -30.79,-20.88 -5.61,-10.9 10.74,-9.89 17.02,-8.18 11.43,3.12 26.92,10.37 31.89,21.91 4.66,10.82 -12.39,8.79 -18.12,7.15 m -41.55,9.73 c 5.62,6.18 -7.26,1.59 -10.16,0.22 -9.26,-4.38 -19.03,-9.91 -26.17,-17.35 -6.26,-6.52 5.44,-2.67 9,-1 9.59,4.49 20.14,10.21 27.33,18.13 m -44.86,-41.39 c -10.51,-4.8 -21.45,-12.71 -27.7,-22.57 -5.72,-9.03 3.58,-9.08 10.18,-6.2 10.96,4.78 22.84,13.2 28.94,23.68 5.42,9.29 -5.69,7.71 -11.42,5.09 m -23.67,5.99 c 5.67,5.78 -1.48,2.21 -5.13,-0.23 -8.17,-5.47 -16.12,-11.69 -23,-18.72 -5.64,-5.77 -0.31,-3.57 4.01,-0.65 8.52,5.76 16.91,12.24 24.12,19.6 m -38,-47.15 c 4.7,7.02 0.72,8.1 -5.43,3.97 -9.02,-6.05 -17.35,-14.23 -23.51,-23.17 -4.37,-6.34 -2.6,-9.6 4.28,-5.11 9.49,6.2 18.36,14.89 24.66,24.31 m -31.93,-142.84 c -2.76,-10.62 1.3,-24.18 14.73,-20.55 14.48,3.91 25.78,19.57 29.05,33.59 2.6,11.16 -2.74,23.68 -15.99,19.38 -13.68,-4.43 -24.3,-18.93 -27.79,-32.42 m -4.92,75.38 c 3.07,6.86 2.47,15.39 -6.51,9.83 -9.98,-6.19 -18.12,-16.96 -23.05,-27.47 -2.81,-6 -3.94,-16.39 5.38,-11.08 10.6,6.06 19.28,17.74 24.18,28.72 m -16.32,28.93 c 3.12,4.49 4.88,9.2 -0.9,3.71 -7.15,-6.8 -13.51,-14.66 -19.1,-22.78 -2.62,-3.81 -5.86,-10.41 0,-4.82 7.47,7.13 14.12,15.42 20,23.89 m -23.98,-101.33 c -10.96,-5.56 -18.12,-19.45 -21.47,-30.73 -1.78,-5.97 -3.56,-22.5 7.42,-17.81 11.7,5.01 19.29,20.29 22.53,31.85 1.85,6.56 2.55,22.27 -8.48,16.69 m -13.28,37.07 c 1.81,3.74 5.47,14.93 -1.23,8.67 -7.59,-7.08 -13.32,-16.79 -17.83,-26.05 -1.48,-3.05 -6,-15.54 0.42,-9.85 8.06,7.16 14.01,17.62 18.64,27.23 m -31.9,-81.81 c 0.97,3.14 4.55,20.31 -2.56,14.56 -8.07,-6.53 -12.55,-18.68 -15.58,-28.28 -0.85,-2.7 -4.9,-20.3 1.85,-15.59 8.67,6.07 13.3,19.63 16.29,29.31 m -1.97,47.67 c 1.22,2.52 5.89,13.5 2.08,8.15 -5.31,-7.43 -9.5,-15.81 -13.4,-24.06 -1.03,-2.17 -5.59,-13.52 -2.53,-9.2 5.51,7.74 9.73,16.58 13.85,25.11 m -9.99,-462.941 c -2.19,9.191 -6.01,24.601 -14.9,29.64 -6.99,3.961 -3.57,-15.429 -2.87,-18.281 2.28,-9.34 5.96,-22.918 14.24,-28.769 7.28,-5.141 4.27,14.308 3.53,17.41 m -10.65,318.181 c 0.54,3.34 2.66,24.73 -4.88,20.53 -8.47,-4.72 -11.09,-20.14 -12.54,-28.79 -0.57,-3.35 -3.1,-24.03 4.27,-21.18 9,3.49 11.81,21.21 13.15,29.44 m -8.93,70.18 c 0.79,2.48 3.87,16.51 1.31,13.02 -5.35,-7.27 -8.18,-16.97 -10.86,-25.49 -0.76,-2.42 -3.38,-16.1 -1.63,-13.91 5.75,7.15 8.44,17.77 11.18,26.38 m -9.27,-151.49 c -8.41,-1.652 -8.87,-20.723 -9.07,-27.16 -0.17,-5.282 -0.72,-25.621 7.44,-25.68 8.66,-0.051 9.46,21.508 9.64,27.301 0.14,4.738 0.29,27.16 -8.01,25.539 m -11.58,65.13 c 0.46,2.67 1.29,19.85 -0.48,18 -5.54,-5.78 -6.48,-17.9 -7.76,-25.48 -0.42,-2.44 -1.49,-19.91 0.28,-18.57 5.95,4.51 6.79,19.14 7.96,26.05 m -9.36,-93.853 c 0.09,2.692 -0.1,23.524 -3.16,22.321 -5.11,-2.02 -4.33,-19.09 -4.48,-23.79 -0.11,-3.218 -1.11,-22.378 3.01,-22.429 4.39,-0.059 4.52,20.398 4.63,23.898 M 1865.91,854 c 2.8,0 5.44,0.617 7.85,1.668 -1.78,12.141 -3.09,24.43 -4.09,36.812 -1.26,0.25 -2.42,0.75 -3.76,0.75 -10.85,0 -19.66,-8.781 -19.66,-19.621 0,-10.832 8.81,-19.609 19.66,-19.609 m -20.7,-372.801 c 0,-10.84 8.8,-19.621 19.66,-19.621 10.86,0 19.66,8.781 19.66,19.621 0,10.84 -8.8,19.621 -19.66,19.621 -10.86,0 -19.66,-8.781 -19.66,-19.621 m -39.32,-311.41 c 0,10.832 -8.8,19.621 -19.66,19.621 -10.86,0 -19.66,-8.789 -19.66,-19.621 0,-10.84 8.8,-19.617 19.66,-19.617 10.86,0 19.66,8.777 19.66,19.617 m 0,75.961 c 0,10.84 -8.8,19.621 -19.66,19.621 -10.86,0 -19.66,-8.781 -19.66,-19.621 0,-10.828 8.8,-19.621 19.66,-19.621 10.86,0 19.66,8.793 19.66,19.621 m 0,78.488 c 0,10.832 -8.8,19.621 -19.66,19.621 -10.86,0 -19.66,-8.789 -19.66,-19.621 0,-10.84 8.8,-19.617 19.66,-19.617 10.86,0 19.66,8.777 19.66,19.617 m 0,78.481 c 0,10.84 -8.8,19.621 -19.66,19.621 -10.86,0 -19.66,-8.781 -19.66,-19.621 0,-10.828 8.8,-19.617 19.66,-19.617 10.86,0 19.66,8.789 19.66,19.617 m 0,78.48 c 0,10.84 -8.8,19.621 -19.66,19.621 -10.86,0 -19.66,-8.781 -19.66,-19.621 0,-10.84 8.8,-19.621 19.66,-19.621 10.86,0 19.66,8.781 19.66,19.621 m 0,78.492 c 0,10.829 -8.8,19.618 -19.66,19.618 -10.86,0 -19.66,-8.789 -19.66,-19.618 0,-10.839 8.8,-19.621 19.66,-19.621 10.86,0 19.66,8.782 19.66,19.621 m 0,78.481 c 0,10.828 -8.8,19.617 -19.66,19.617 -10.86,0 -19.66,-8.789 -19.66,-19.617 0,-10.844 8.8,-19.621 19.66,-19.621 10.86,0 19.66,8.777 19.66,19.621 m 0,78.476 c 0,10.84 -8.8,19.622 -19.66,19.622 -10.86,0 -19.66,-8.782 -19.66,-19.622 0,-10.839 8.8,-19.621 19.66,-19.621 10.86,0 19.66,8.782 19.66,19.621 m 0,78.481 c 0,10.84 -8.8,19.621 -19.66,19.621 -10.86,0 -19.66,-8.781 -19.66,-19.621 0,-10.828 8.8,-19.621 19.66,-19.621 10.86,0 19.66,8.793 19.66,19.621 m 0,78.48 c 0,10.84 -8.8,19.621 -19.66,19.621 -10.86,0 -19.66,-8.781 -19.66,-19.621 0,-10.832 8.8,-19.609 19.66,-19.609 10.86,0 19.66,8.777 19.66,19.609 m -78.61,-313.918 c 0,10.829 -8.8,19.618 -19.66,19.618 -10.86,0 -19.66,-8.789 -19.66,-19.618 0,-10.839 8.8,-19.632 19.66,-19.632 10.86,0 19.66,8.793 19.66,19.632 m -39.32,78.481 c 0,-10.844 8.8,-19.621 19.66,-19.621 10.86,0 19.66,8.777 19.66,19.621 0,10.828 -8.8,19.617 -19.66,19.617 -10.86,0 -19.66,-8.789 -19.66,-19.617 m 39.32,78.476 c 0,10.84 -8.8,19.622 -19.66,19.622 -10.86,0 -19.66,-8.782 -19.66,-19.622 0,-10.839 8.8,-19.621 19.66,-19.621 10.86,0 19.66,8.782 19.66,19.621 m 0,78.481 c 0,10.84 -8.8,19.621 -19.66,19.621 -10.86,0 -19.66,-8.781 -19.66,-19.621 0,-10.828 8.8,-19.621 19.66,-19.621 10.86,0 19.66,8.793 19.66,19.621 m 0,78.48 c 0,10.84 -8.8,19.621 -19.66,19.621 -10.86,0 -19.66,-8.781 -19.66,-19.621 0,-10.832 8.8,-19.609 19.66,-19.609 10.86,0 19.66,8.777 19.66,19.609 m -78.64,-703.82 c 0,10.832 -8.81,19.621 -19.66,19.621 -10.86,0 -19.66,-8.789 -19.66,-19.621 0,-10.84 8.8,-19.617 19.66,-19.617 10.85,0 19.66,8.777 19.66,19.617 m 0,75.961 c 0,10.84 -8.81,19.621 -19.66,19.621 -10.86,0 -19.66,-8.781 -19.66,-19.621 0,-10.828 8.8,-19.621 19.66,-19.621 10.85,0 19.66,8.793 19.66,19.621 m 0,78.488 c 0,10.832 -8.81,19.621 -19.66,19.621 -10.86,0 -19.66,-8.789 -19.66,-19.621 0,-10.84 8.8,-19.617 19.66,-19.617 10.85,0 19.66,8.777 19.66,19.617 m 0,78.481 c 0,10.84 -8.81,19.621 -19.66,19.621 -10.86,0 -19.66,-8.781 -19.66,-19.621 0,-10.828 8.8,-19.617 19.66,-19.617 10.85,0 19.66,8.789 19.66,19.617 m 0,78.48 c 0,10.84 -8.81,19.621 -19.66,19.621 -10.86,0 -19.66,-8.781 -19.66,-19.621 0,-10.84 8.8,-19.621 19.66,-19.621 10.85,0 19.66,8.781 19.66,19.621 m 0,78.492 c 0,10.829 -8.8,19.618 -19.66,19.618 -10.86,0 -19.66,-8.789 -19.66,-19.618 0,-10.839 8.8,-19.632 19.66,-19.632 10.86,0 19.66,8.793 19.66,19.632 m 0,78.481 c 0,10.828 -8.8,19.617 -19.66,19.617 -10.86,0 -19.66,-8.789 -19.66,-19.617 0,-10.844 8.8,-19.621 19.66,-19.621 10.86,0 19.66,8.777 19.66,19.621 m 0,78.476 c 0,10.84 -8.8,19.622 -19.66,19.622 -10.86,0 -19.66,-8.782 -19.66,-19.622 0,-10.839 8.8,-19.621 19.66,-19.621 10.86,0 19.66,8.782 19.66,19.621 m 0,78.481 c 0,10.84 -8.8,19.621 -19.66,19.621 -10.86,0 -19.66,-8.781 -19.66,-19.621 0,-10.828 8.8,-19.621 19.66,-19.621 10.86,0 19.66,8.793 19.66,19.621 m 0,78.48 c 0,10.84 -8.8,19.621 -19.66,19.621 -10.86,0 -19.66,-8.781 -19.66,-19.621 0,-10.832 8.8,-19.609 19.66,-19.609 10.86,0 19.66,8.777 19.66,19.609 M 1311.21,460.961 c 0,27.84 29.67,36.129 53.41,36.129 33.83,0 70.03,-12.442 68.25,-50.93 h 110.38 c -0.59,95.352 -85.46,136.219 -169.73,136.219 -79.52,0 -172.69,-36.129 -172.69,-128.52 0,-77.589 63.5,-104.828 124.03,-122.007 61.12,-17.18 121.66,-24.282 121.66,-61.602 0,-31.379 -34.42,-43.23 -67.66,-43.23 -46.88,0 -77.74,15.992 -80.11,65.742 h -110.39 c 0.6,-108.383 86.65,-151.032 183.98,-151.032 93.17,0 184.56,34.348 184.56,141.551 0,76.41 -61.72,104.828 -122.85,122.008 -61.71,17.18 -122.84,23.102 -122.84,55.672 m 228.91,419.117 v 13.32 c -13.65,0.442 -22.11,-5.621 -28.2,-17.91 h -0.29 v 16.129 h -11.86 v -76.558 h 12.6 v 34.058 c 0,19.41 7.42,30.961 27.75,30.961 m -60.4,-227.961 v 43.262 c 0,13.769 7.42,23.988 22.71,23.988 9.66,0 15.6,-6.066 15.6,-15.398 v -51.852 h 12.59 v 50.363 c 0,16.45 -6.22,27.981 -26.4,27.981 -10.99,0 -19.6,-4.441 -24.95,-13.902 h -0.3 v 12.121 h -11.85 v -76.563 z m 5.64,201.153 c 0,22.519 -12.9,40.128 -37.25,40.128 -24.35,0 -37.24,-17.609 -37.24,-40.128 0,-22.379 12.89,-39.993 37.24,-39.993 24.35,0 37.25,17.614 37.25,39.993 m -13.34,0 c 0,-18.532 -10.69,-28.903 -23.91,-28.903 -13.21,0 -23.9,10.371 -23.9,28.903 0,18.66 10.69,29.039 23.9,29.039 13.22,0 23.91,-10.379 23.91,-29.039 m -57.01,-122.809 c -24.35,0 -37.24,-17.613 -37.24,-40.133 0,-22.367 12.89,-39.98 37.24,-39.98 24.35,0 37.25,17.613 37.25,39.98 0,22.52 -12.9,40.133 -37.25,40.133 m 0,-11.094 c 13.22,0 23.91,-10.367 23.91,-29.039 0,-18.519 -10.69,-28.89 -23.91,-28.89 -13.21,0 -23.9,10.371 -23.9,28.89 0,18.672 10.69,29.039 23.9,29.039 m -16.48,191.524 c 2.23,0 4.9,-0.293 7.13,-1.032 v 10.942 c -2.38,0.738 -5.79,1.179 -8.17,1.179 -13.79,0 -21.2,-6.5 -21.2,-18.941 v -11.422 h -12.92 v -11.09 h 12.92 v -65.468 h 12.59 v 65.468 h 14.85 v 11.09 h -14.85 v 10.672 c 0,6.68 3.57,8.602 9.65,8.602 m -48.81,-258.774 h 12.6 v 76.563 h -12.6 z m 0,90.363 h 12.6016 v 15.3867 H 1349.72 Z m -24.36,-90.363 h 9.65 v 11.094 h -5.79 c -7.87,0 -9.5,1.039 -9.5,6.816 v 47.563 h 15.29 v 11.09 h -15.29 v 22.961 h -12.6 V 728.68 h -13.06 v -11.09 h 13.06 v -48.75 c 0,-14.063 5.19,-16.723 18.24,-16.723 m -66.05,197.453 h 57.44 c 0.75,18.5 -7.56,43.828 -34.72,43.828 -20.94,0 -36.06,-16.871 -36.06,-39.839 0.75,-23.411 12.31,-40.282 36.8,-40.282 17.23,0 29.39,9.172 32.8,26.063 h -12.45 c -2.23,-9.93 -9.51,-14.973 -19.9,-14.973 -16.78,0 -24.35,11.863 -23.91,25.203 m 0,11.09 c 0.89,11.707 8.76,21.649 21.98,21.649 12.47,0 21.53,-9.641 22.12,-21.649 z m 10.86,-154.031 c 0,-9.481 -11.88,-8.59 -25.84,-11.25 -13.07,-2.539 -25.96,-6.25 -25.96,-23.578 0,-15.242 11.41,-21.453 25.37,-21.453 10.69,0 20.04,3.691 27.02,11.832 0,-8.289 4.15,-11.832 10.67,-11.832 4.01,0 6.83,0.73 9.05,2.07 v 9.762 c -1.63,-0.602 -2.82,-0.742 -3.86,-0.742 -4,0 -4,2.66 -4,8.589 v 39.411 c 0,17.921 -14.98,21.023 -28.79,21.023 -17.07,0 -31.75,-6.652 -32.49,-25.613 h 12.59 c 0.6,11.261 8.47,14.519 19.16,14.519 8.02,0 17.08,-1.777 17.08,-12.738 m -0.15,-27.859 c 0,-6.961 -6.83,-17.332 -23.46,-17.332 -7.72,0 -14.85,2.96 -14.85,11.261 0,9.328 7.13,12.289 15.44,13.781 8.47,1.481 17.97,1.629 22.87,5.18 z m -67.1,79.089 h -12.6016 V 652.117 h 12.6016 z m 23.59,57.2 h 9.65 v 11.089 h -5.79 c -7.86,0 -9.5,1.04 -9.5,6.821 v 47.558 h 15.29 v 11.09 h -15.29 v 22.961 h -12.59 v -22.961 h -13.06 v -11.09 h 13.06 v -48.75 c 0,-14.058 5.18,-16.718 18.23,-16.718 m -54,0 h 11.85 v 76.558 h -12.6 v -43.25 c 0,-13.777 -7.42,-24 -22.72,-24 -9.65,0 -15.59,6.071 -15.59,15.41 v 51.84 h -12.59 v -50.359 c 0,-16.438 6.22,-27.981 26.4,-27.981 10.99,0 19.6,4.442 24.95,13.911 h 0.3 z M 1119.65,676.84 v 51.84 h -12.6 v -50.36 c 0,-16.441 6.23,-27.972 26.41,-27.972 10.99,0 19.6,4.429 24.95,13.902 h 0.29 v -12.133 h 11.86 v 76.563 h -12.6 v -43.25 c 0,-13.77 -7.42,-23.992 -22.72,-23.992 -9.65,0 -15.59,6.07 -15.59,15.402 m -22.41,138.219 h 9.65 v 11.089 h -5.79 c -7.87,0 -9.5,1.04 -9.5,6.821 v 47.558 h 15.29 v 11.09 h -15.29 v 22.961 H 1079 v -22.961 h -13.06 v -11.09 H 1079 v -48.75 c 0,-14.058 5.19,-16.718 18.24,-16.718 m -34.72,-84.598 c -9.8,0 -18.86,-4.883 -24.05,-13.012 -3.11,9.321 -11.71,13.012 -21.07,13.012 -10.54,0 -19.15,-4.441 -24.798,-13.012 h -0.293 v 11.231 h -11.86 v -76.563 h 12.602 v 47.703 c 0,5.778 5.488,19.547 20.489,19.547 11.29,0 14.4,-7.109 14.4,-17.027 v -50.223 h 12.6 v 47.703 c 0,11.848 7.87,19.547 20.05,19.547 12.33,0 14.85,-7.547 14.85,-17.027 v -50.223 h 12.6 v 56.141 c 0,15.84 -10.23,22.203 -25.52,22.203 m -20.62,84.598 h 12.6 v 76.558 h -12.6 z m 0,90.351 h 12.6016 v 15.3906 H 1041.9 Z m -24.36,-90.351 h 9.65 v 11.089 h -5.79 c -7.87,0 -9.5,1.04 -9.5,6.821 v 47.558 h 15.29 v 11.09 h -15.29 v 22.961 h -12.599 v -22.961 h -13.063 v -11.09 h 13.063 v -48.75 c 0,-14.058 5.189,-16.718 18.239,-16.718 m -87.27,57.468 c 0,7.703 8.761,9.782 16.332,9.782 8.32,0 16.929,-3.11 17.82,-12.891 h 12.598 c -1.04,18.652 -14.532,23.98 -31.461,23.98 -13.36,0 -28.629,-6.359 -28.629,-21.757 0,-14.661 12.601,-18.813 25.07,-21.621 12.621,-2.84 25.102,-4.469 25.102,-14.243 0,-9.629 -10.704,-11.41 -18.571,-11.41 -10.39,0 -20.191,3.563 -20.64,14.813 h -12.59 c 0.738,-18.95 15.269,-25.903 32.488,-25.903 15.59,0 32.641,5.922 32.641,24.133 0,14.809 -12.45,18.957 -25.071,21.77 -11.73,2.828 -25.089,4.308 -25.089,13.347 m -41.692,-57.468 h 12.602 v 50.359 c 0,16.441 -6.231,27.98 -26.41,27.98 -10.989,0 -19.598,-4.437 -24.95,-13.91 h -0.289 v 12.129 h -11.859 v -76.558 h 12.598 v 43.25 c 0,13.781 7.421,24 22.718,24 9.653,0 15.59,-6.079 15.59,-15.411 z m -86.68,0 H 815.98 V 920.801 H 801.898 Z M 739.551,686.641 h 57.437 c 0.742,18.5 -7.558,43.82 -34.718,43.82 -20.942,0 -36.059,-16.871 -36.059,-39.832 0.738,-23.41 12.301,-40.281 36.801,-40.281 17.218,0 29.379,9.16 32.789,26.062 h -12.449 c -2.231,-9.93 -9.5,-14.972 -19.903,-14.972 -16.777,0 -24.347,11.851 -23.898,25.203 m 0,11.089 c 0.89,11.708 8.758,21.637 21.969,21.637 12.48,0 21.531,-9.637 22.128,-21.637 z M 698.16,652.117 h 12.6016 V 757.859 H 698.16 Z m -21.539,-1.769 c 4.008,0 6.828,0.73 9.051,2.07 v 9.762 c -1.633,-0.602 -2.82,-0.742 -3.863,-0.742 -4,0 -4,2.66 -4,8.589 v 39.411 c 0,17.921 -14.981,21.023 -28.789,21.023 -17.071,0 -31.75,-6.652 -32.489,-25.613 h 12.59 c 0.598,11.261 8.469,14.519 19.16,14.519 8.02,0 17.078,-1.777 17.078,-12.738 0,-9.481 -11.879,-8.59 -25.839,-11.25 -13.071,-2.539 -25.961,-6.25 -25.961,-23.578 0,-15.242 11.41,-21.453 25.371,-21.453 10.691,0 20.039,3.691 27.019,11.832 0,-8.289 4.153,-11.832 10.672,-11.832 m -11.41,28.422 c 0,-6.961 -6.832,-17.332 -23.461,-17.332 -7.719,0 -14.852,2.96 -14.852,11.261 0,9.328 7.133,12.289 15.442,13.781 8.469,1.481 17.969,1.629 22.871,5.18 z m -118.012,10.668 c 0,15.562 5.641,29.929 23.891,29.929 10.39,0 17.07,-5.629 19,-15.258 h 13.058 c -1.777,18.219 -15.726,26.352 -33.097,26.352 -24.332,0 -36.192,-18.051 -36.192,-41.023 0,-22.821 12.45,-39.09 35.903,-39.09 19.289,0 31.019,11.09 33.84,29.761 H 590.68 c -1.629,-11.558 -8.899,-18.671 -21.071,-18.671 -16.031,0 -22.41,13.921 -22.41,28 m -73.32,20.152 c 0,7.711 8.762,9.777 16.332,9.777 8.32,0 16.93,-3.109 17.82,-12.887 h 12.598 c -1.039,18.661 -14.527,23.981 -31.457,23.981 -13.363,0 -28.633,-6.363 -28.633,-21.75 0,-14.672 12.59,-18.82 25.07,-21.633 12.621,-2.828 25.09,-4.461 25.09,-14.238 0,-9.629 -10.687,-11.402 -18.558,-11.402 -10.391,0 -20.192,3.55 -20.641,14.812 h -12.602 c 0.743,-18.949 15.274,-25.902 32.5,-25.902 15.59,0 32.641,5.91 32.641,24.121 0,14.808 -12.449,18.961 -25.07,21.769 -11.731,2.84 -25.09,4.321 -25.09,13.352 m -42.277,-57.473 h 12.597 v 76.563 h -12.597 z m 0,90.363 h 12.5977 v 15.3867 H 431.602 Z m 71.918,-450.902 -73,281.91 H 267.922 V 150.621 H 371.77 v 321 h 1.191 l 89.019,-321 h 84.27 l 89.02,321 h 1.179 v -321 h 103.86 v 422.867 h -162.61 l -73,-281.91 z m -96.282,360.539 h 9.653 v 11.094 h -5.789 c -7.872,0 -9.5,1.039 -9.5,6.816 v 47.563 h 15.289 v 11.09 h -15.289 v 22.961 H 389 V 728.68 H 375.941 V 717.59 H 389 v -48.75 c 0,-14.063 5.191,-16.723 18.238,-16.723 m -55.34,0 H 364.5 v 105.742 h -12.602 z m -31.617,0 h 11.86 v 76.563 h -12.602 v -43.25 c 0,-13.77 -7.418,-23.992 -22.719,-23.992 -9.648,0 -15.59,6.07 -15.59,15.402 v 51.84 h -12.601 v -50.36 c 0,-16.441 6.23,-27.972 26.41,-27.972 10.992,0 19.602,4.429 24.949,13.902 h 0.293 z m -86.383,0 h 13.34 V 757.859 H 227.961 L 194.41,668.988 161.012,757.859 H 141.73 V 652.117 h 13.34 v 87.973 h 0.301 l 33.109,-87.973 h 12.02 l 33.109,87.992 h 0.289 z M 864.66,730.48 c 0,13.778 11.879,18.071 23.762,18.071 14.547,0 24.648,-6.524 26.277,-21.621 h 13.34 c -0.891,23.25 -17.348,33.449 -39.019,33.449 -19.309,0 -38.442,-9.461 -38.442,-30.941 0,-19.399 17.051,-24.29 33.981,-27.989 16.929,-3.719 33.851,-6.238 33.851,-20.761 0,-15.258 -14.101,-19.25 -26.871,-19.25 -16.039,0 -30.879,7.703 -30.879,25.472 h -13.34 c 0,-25.769 20.02,-37.301 43.77,-37.301 19.308,0 41.398,9.02 41.398,31.532 0,20.726 -16.898,26.66 -33.816,30.507 -17.082,3.872 -34.012,5.801 -34.012,18.832 m 83.578,12 h 12.602 v 15.387 h -12.602 z m 12.602,-13.8 H 948.2384 V 652.1175 H 960.84 Z M 902.91,292.762 H 792.531 C 793.121,184.379 879.172,141.73 976.5,141.73 c 93.18,0 184.57,34.348 184.57,141.551 0,76.41 -61.72,104.828 -122.85,122.008 -61.72,17.18 -122.841,23.102 -122.841,55.672 0,27.84 29.672,36.129 53.41,36.129 33.821,0 70.031,-12.442 68.251,-50.93 h 110.38 c -0.59,95.352 -85.46,136.219 -169.729,136.219 -79.519,0 -172.703,-36.129 -172.703,-128.52 0,-77.589 63.5,-104.828 124.043,-122.007 61.117,-17.18 121.649,-24.282 121.649,-61.602 0,-31.379 -34.42,-43.23 -67.649,-43.23 -46.883,0 -77.742,15.992 -80.121,65.742 m 785.05,188.437 c 0,-10.84 8.8,-19.621 19.66,-19.621 10.86,0 19.66,8.781 19.66,19.621 0,10.84 -8.8,19.621 -19.66,19.621 -10.86,0 -19.66,-8.781 -19.66,-19.621 m 0,-78.48 c 0,-10.828 8.8,-19.617 19.66,-19.617 10.86,0 19.66,8.789 19.66,19.617 0,10.84 -8.8,19.621 -19.66,19.621 -10.86,0 -19.66,-8.781 -19.66,-19.621 m 0,-78.481 c 0,-10.84 8.8,-19.617 19.66,-19.617 10.86,0 19.66,8.777 19.66,19.617 0,10.832 -8.8,19.621 -19.66,19.621 -10.86,0 -19.66,-8.789 -19.66,-19.621 m 0,-78.488 c 0,-10.828 8.8,-19.621 19.66,-19.621 10.86,0 19.66,8.793 19.66,19.621 0,10.84 -8.8,19.621 -19.66,19.621 -10.86,0 -19.66,-8.781 -19.66,-19.621 m 0,-75.961 c 0,-10.84 8.8,-19.617 19.66,-19.617 10.86,0 19.66,8.777 19.66,19.617 0,10.832 -8.8,19.621 -19.66,19.621 -10.86,0 -19.66,-8.789 -19.66,-19.621 m 157.25,232.93 c 0,-10.828 8.8,-19.617 19.66,-19.617 10.86,0 19.66,8.789 19.66,19.617 0,10.84 -8.8,19.621 -19.66,19.621 -10.86,0 -19.66,-8.781 -19.66,-19.621 m 0,-78.481 c 0,-10.84 8.8,-19.617 19.66,-19.617 10.86,0 19.66,8.777 19.66,19.617 0,10.832 -8.8,19.621 -19.66,19.621 -10.86,0 -19.66,-8.789 -19.66,-19.621 m 0,-78.488 c 0,-10.828 8.8,-19.621 19.66,-19.621 10.86,0 19.66,8.793 19.66,19.621 0,10.84 -8.8,19.621 -19.66,19.621 -10.86,0 -19.66,-8.781 -19.66,-19.621 m 0,-75.961 c 0,-10.84 8.8,-19.617 19.66,-19.617 10.86,0 19.66,8.777 19.66,19.617 0,10.832 -8.8,19.621 -19.66,19.621 -10.86,0 -19.66,-8.789 -19.66,-19.621 m 40.37,389.902 c 0,10.829 -8.81,19.618 -19.66,19.618 -10.86,0 -19.67,-8.789 -19.67,-19.618 0,-10.839 8.81,-19.621 19.67,-19.621 10.85,0 19.66,8.782 19.66,19.621 m -39.33,235.438 c 0,-10.828 8.81,-19.621 19.67,-19.621 10.85,0 19.66,8.793 19.66,19.621 0,10.84 -8.81,19.629 -19.66,19.629 -10.86,0 -19.67,-8.789 -19.67,-19.629 m 19.66,-137.34 c -10.85,0 -19.66,-8.789 -19.66,-19.617 0,-10.844 8.81,-19.621 19.66,-19.621 10.86,0 19.67,8.777 19.67,19.621 0,10.828 -8.81,19.617 -19.67,19.617 m -19.66,58.859 c 0,-10.839 8.81,-19.621 19.67,-19.621 10.85,0 19.66,8.782 19.66,19.621 0,10.84 -8.81,19.622 -19.66,19.622 -10.86,0 -19.67,-8.782 -19.67,-19.622 m 35.81,160.36 c 0.67,-6.457 0.68,-20.59 6.22,-24.899 2.04,-1.589 1.91,17.551 1.64,20.149 -0.55,5.301 -0.82,22.93 -6.39,25.269 -2.66,1.114 -1.73,-18.078 -1.47,-20.519 m 14.74,-84.981 c 2.03,-8.277 4.03,-18.879 9.46,-25.679 2.02,-2.528 0.05,12.769 -0.6,15.382 -2.01,8.129 -3.81,20.18 -9.71,26.45 -1.5,1.59 0.23,-13.621 0.85,-16.153 m 5.17,75.203 c 0.79,-7.73 2.42,-24.902 10.94,-28.3 7.87,-3.141 6.65,19.218 6.27,23.05 -0.72,7.129 -2.6,26.86 -11.53,28.719 -7.75,1.621 -6.11,-19.359 -5.68,-23.469 m 10.65,-140.101 c -2.42,3.289 1.34,-9.149 2.23,-11.371 3.37,-8.469 6.99,-17.418 12.29,-24.879 3.29,-4.629 -0.86,7.941 -1.84,10.371 -3.51,8.711 -7.09,18.25 -12.68,25.879 m 12.27,-88.957 c 0,-10.844 8.81,-19.621 19.66,-19.621 6.75,0 12.42,3.609 15.96,8.777 -6.4,9.793 -12.5,19.789 -18.31,29.981 -9.69,-1.2 -17.31,-9.141 -17.31,-19.137 m 0.01,-78.481 c 0,-10.839 8.8,-19.632 19.65,-19.632 10.86,0 19.67,8.793 19.67,19.632 0,10.829 -8.81,19.618 -19.67,19.618 -10.85,0 -19.65,-8.789 -19.65,-19.618 m 0,-78.492 c 0,-10.84 8.8,-19.621 19.65,-19.621 10.86,0 19.67,8.781 19.67,19.621 0,10.84 -8.81,19.621 -19.67,19.621 -10.85,0 -19.65,-8.781 -19.65,-19.621 m 0,-78.48 c 0,-10.828 8.8,-19.617 19.65,-19.617 10.86,0 19.67,8.789 19.67,19.617 0,10.84 -8.81,19.621 -19.67,19.621 -10.85,0 -19.65,-8.781 -19.65,-19.621 m 0,-78.481 c 0,-10.84 8.8,-19.617 19.65,-19.617 10.86,0 19.67,8.777 19.67,19.617 0,10.832 -8.81,19.621 -19.67,19.621 -10.85,0 -19.65,-8.789 -19.65,-19.621 m 0,-78.488 c 0,-10.828 8.8,-19.621 19.65,-19.621 10.86,0 19.67,8.793 19.67,19.621 0,10.84 -8.81,19.621 -19.67,19.621 -10.85,0 -19.65,-8.781 -19.65,-19.621 m 0,-75.961 c 0,-10.84 8.8,-19.617 19.65,-19.617 10.86,0 19.67,8.777 19.67,19.617 0,10.832 -8.81,19.621 -19.67,19.621 -10.85,0 -19.65,-8.789 -19.65,-19.621 m 37.67,488.871 c 6.92,-6.172 3.08,7.949 1.73,11.36 -3.9,9.808 -9.3,21.578 -17.66,28.398 -6.56,5.34 -2.09,-9.699 -0.96,-12.488 3.86,-9.551 9.08,-20.321 16.89,-27.27 m -13.54,427.47 c -1.09,-6.94 -1.61,-26.98 10.32,-24.25 12.55,2.87 18.22,21.83 19.82,32.75 1.04,7.09 0.96,27.61 -11.3,23.51 -11.8,-3.94 -17.14,-21.1 -18.84,-32.01 m -6.56,-229.54 c 0.99,-10.36 5.26,-28.91 17.33,-31.75 12.6,-2.973 13.54,18.668 12.85,26.328 -0.92,10.262 -5.5,30.672 -18.28,32.23 -12.17,1.493 -12.63,-19.121 -11.9,-26.808 m -3.8,115.879 c -0.25,-8.649 1.51,-29.149 13.79,-29.192 12.89,-0.047 16.15,21.524 16.41,30.871 0.23,8.52 -1.9,30.522 -14.73,29.052 -12.24,-1.41 -15.2,-21.22 -15.47,-30.731 m 21.16,-224.629 c 2.58,-11.262 8.98,-26.692 20.36,-31.621 11.7,-5.071 11.15,13.281 9.71,19.961 -2.46,11.41 -9.23,28.449 -21.38,32.59 -11.51,3.918 -10.13,-14.641 -8.69,-20.93 m 20.16,-131.852 c 5.14,-8.718 11.28,-17.379 18.62,-24.386 6.3,-6.024 3.4,1.707 0.94,5.867 -5.36,9.09 -11.75,18.312 -19.49,25.551 -6.19,5.8 -2.1,-3.59 -0.07,-7.032 m 8.18,37.801 c 4.22,-10.988 12.02,-23.168 22.46,-29.168 10.05,-5.781 9.75,6.301 7.32,12.957 -4.14,11.402 -12.43,24.711 -23.55,30.402 -10.19,5.219 -8.48,-8.312 -6.23,-14.191 m 17.16,-86.098 c -1.11,-2.461 -1.79,-5.132 -1.79,-8 0,-10.839 8.8,-19.632 19.66,-19.632 2.2,0 4.24,0.589 6.21,1.261 -8.3,8.532 -16.32,17.328 -24.08,26.371 m -1.79,-86.492 c 0,-10.84 8.8,-19.621 19.66,-19.621 10.85,0 19.66,8.781 19.66,19.621 0,10.84 -8.81,19.621 -19.66,19.621 -10.86,0 -19.66,-8.781 -19.66,-19.621 m 0,-78.48 c 0,-10.828 8.8,-19.617 19.66,-19.617 10.85,0 19.66,8.789 19.66,19.617 0,10.84 -8.81,19.621 -19.66,19.621 -10.86,0 -19.66,-8.781 -19.66,-19.621 m 0,-78.481 c 0,-10.84 8.8,-19.617 19.66,-19.617 10.85,0 19.66,8.777 19.66,19.617 0,10.832 -8.81,19.621 -19.66,19.621 -10.86,0 -19.66,-8.789 -19.66,-19.621 m 0,-78.488 c 0,-10.828 8.8,-19.621 19.66,-19.621 10.85,0 19.66,8.793 19.66,19.621 0,10.84 -8.81,19.621 -19.66,19.621 -10.86,0 -19.66,-8.781 -19.66,-19.621 m 0,-75.961 c 0,-10.84 8.8,-19.617 19.66,-19.617 10.85,0 19.66,8.777 19.66,19.617 0,10.832 -8.81,19.621 -19.66,19.621 -10.86,0 -19.66,-8.789 -19.66,-19.621 m 43.59,383.621 c 7.54,-4.941 9.75,-0.519 5.83,6.539 -5.7,10.242 -14.59,20.242 -24.58,26.461 -8.11,5.051 -8.28,-1.531 -4.68,-7.75 5.64,-9.75 13.97,-19.058 23.43,-25.25 m 15.21,-30.48 c 6.61,-7.942 14.79,-14.989 23.34,-20.782 4.66,-3.148 10.57,-5.027 5.18,1.512 -6.86,8.352 -15.53,15.77 -24.48,21.789 -5.43,3.653 -9.22,3.68 -4.04,-2.519 m 20.71,-198.692 c 0,-10.84 8.8,-19.617 19.65,-19.617 10.86,0 19.67,8.777 19.67,19.617 0,10.832 -8.81,19.621 -19.67,19.621 -10.85,0 -19.65,-8.789 -19.65,-19.621 m 0,-78.488 c 0,-10.828 8.8,-19.621 19.66,-19.621 10.85,0 19.66,8.793 19.66,19.621 0,10.84 -8.81,19.629 -19.66,19.629 -10.86,0 -19.66,-8.789 -19.66,-19.629 m 0,-75.961 c 0,-10.84 8.8,-19.617 19.66,-19.617 10.85,0 19.66,8.777 19.66,19.617 0,10.832 -8.81,19.621 -19.66,19.621 -10.86,0 -19.66,-8.789 -19.66,-19.621 m 40.85,315.262 c 6.78,-8.59 17.17,-15.121 26.98,-19.723 3.93,-1.84 16.44,-5.59 10.67,2.25 -6.72,9.141 -18,16.012 -28.18,20.672 -4.73,2.172 -15.7,4.691 -9.47,-3.199 m 35.47,-36.832 c 7.4,-6.18 16.42,-10.809 25.11,-14.879 2.34,-1.102 14.69,-5.789 9.75,-1.539 -7.59,6.519 -17.22,11.219 -26.22,15.469 -2.8,1.332 -14.46,5.808 -8.64,0.949 m 2.32,-45.5 c 0,-10.828 8.8,-19.617 19.66,-19.617 10.85,0 19.66,8.789 19.66,19.617 0,10.84 -8.81,19.621 -19.66,19.621 -10.86,0 -19.66,-8.781 -19.66,-19.621 m 0,-78.481 c 0,-10.84 8.8,-19.617 19.66,-19.617 10.85,0 19.66,8.777 19.66,19.617 0,10.832 -8.81,19.621 -19.66,19.621 -10.86,0 -19.66,-8.789 -19.66,-19.621 m 0,-78.488 c 0,-10.828 8.8,-19.621 19.66,-19.621 10.85,0 19.66,8.793 19.66,19.621 0,10.84 -8.81,19.621 -19.66,19.621 -10.86,0 -19.66,-8.781 -19.66,-19.621 m 0,-75.961 c 0,-10.84 8.8,-19.617 19.66,-19.617 10.85,0 19.66,8.777 19.66,19.617 0,10.832 -8.81,19.621 -19.66,19.621 -10.86,0 -19.66,-8.789 -19.66,-19.621 m 42.03,281.981 c 6.09,-9.258 19.3,-14.59 29.51,-17.641 3.72,-1.117 21.71,-4.731 16.85,3.98 -5.52,9.922 -20.22,15.512 -30.55,18.493 -4.21,1.218 -21.69,4.097 -15.81,-4.832 m 28.89,-34.782 c 6.98,-6.418 17.85,-9.648 26.75,-12.379 2.21,-0.679 18.35,-3.98 14.9,-0.379 -6.63,6.93 -18.76,10.122 -27.69,12.84 -2.45,0.758 -18.54,4.129 -13.96,-0.082 m 7.88,-13.457 c -0.01,-0.293 -0.16,-0.519 -0.16,-0.812 0,-10.828 8.8,-19.617 19.66,-19.617 6.69,0 12.3,3.546 15.85,8.636 -11.95,3.571 -23.74,7.473 -35.35,11.793 m -0.16,-79.293 c 0,-10.84 8.8,-19.617 19.66,-19.617 10.86,0 19.66,8.777 19.66,19.617 0,10.832 -8.8,19.621 -19.66,19.621 -10.86,0 -19.66,-8.789 -19.66,-19.621 m 0,-78.488 c 0,-10.828 8.8,-19.621 19.66,-19.621 10.86,0 19.66,8.793 19.66,19.621 0,10.84 -8.8,19.621 -19.66,19.621 -10.86,0 -19.66,-8.781 -19.66,-19.621 m 0,-75.961 c 0,-10.84 8.8,-19.617 19.66,-19.617 10.86,0 19.66,8.777 19.66,19.617 0,10.832 -8.8,19.621 -19.66,19.621 -10.86,0 -19.66,-8.789 -19.66,-19.621 m 87.59,394.582 c -1.88,17.07 -20.93,28.277 -36.61,29.867 -13.88,1.391 -31.47,-6.238 -28.73,-22.777 2.71,-16.262 20.62,-26.871 35.84,-28.633 13.55,-1.578 31.29,5.223 29.5,21.543 m -87.63,124.109 c 2.16,-22.5 23.2,-40.402 45.19,-42.242 21.25,-1.789 41.21,13.629 39.79,35.91 -1.47,23.321 -23.43,42.051 -46.13,43.532 -21.5,1.39 -40.99,-14.852 -38.85,-37.2 m -14.09,140.481 c 1.05,-26.441 23.05,-50.191 49.89,-51.383 26.87,-1.187 48.34,21.711 47.65,48.102 -0.7,27.05 -23.43,51.461 -50.93,52.09 -26.77,0.609 -47.64,-22.59 -46.61,-48.809 m -33.98,-308.359 c -8.44,2.136 -23.31,0.687 -18.22,-11.5 5.06,-12.161 19.59,-20.524 31.76,-23.864 7.86,-2.148 23.61,-1.879 19.36,10.352 -4.49,12.941 -20.35,21.82 -32.9,25.012 m -33.47,819.458 c -4.37,-13.3 8.81,-18.11 19.73,-15.63 13.93,3.17 29.88,14.1 33.79,28.49 3.65,13.44 -10.51,17 -20.89,14.38 -13.42,-3.38 -28.17,-13.65 -32.63,-27.24 m -25.52,-98.58 c -2.97,-14.77 8,-26.2 22.93,-23.74 16.49,2.7 31.81,17.66 34.55,34.17 2.5,15.03 -9.45,25.46 -24.1,22.56 -15.78,-3.12 -30.19,-17.21 -33.38,-32.99 m -24.79,-123.82 c -2.01,-19.33 10.62,-39.43 31.87,-37.6 22.34,1.91 39.25,24.12 41.06,45.36 1.68,19.67 -11.91,39.33 -33.28,36.62 -21.43,-2.71 -37.51,-23.82 -39.65,-44.38 m -27.1,178.38 c 12.69,4.7 24.84,16.55 29.61,29.22 4,10.62 -3.53,15.73 -13.35,11.73 -12.06,-4.91 -23.34,-15.93 -28.35,-27.95 -4.17,-10.02 1.64,-16.86 12.09,-13 m 25.05,-459.77 c 1.19,-18.903 15.07,-39.282 35.21,-41.059 20.4,-1.801 32.92,18.109 31.96,36.547 -1.01,19.43 -15.58,40.703 -36.48,41.652 -20.11,0.918 -31.84,-19.031 -30.69,-37.14 m -6.51,142.449 c -0.39,-20.449 13.16,-43.508 35.75,-43.539 23.31,-0.032 38.38,23.859 38.71,45.078 0.33,20.862 -14.01,44.312 -37.16,43.332 -22.59,-0.97 -36.9,-24.141 -37.3,-44.871 m 46.27,-385.61 c 3.88,-14.718 18.6,-26.769 33.13,-30.097 12.5,-2.864 25.46,3.91 22.35,18.168 -3.37,15.5 -19.14,28.32 -34.3,31.351 -12.94,2.59 -24.89,-5.371 -21.18,-19.422 m 10.62,75.739 c 16.25,-2.707 27.67,10.691 25.7,26.332 -2.17,17.14 -16.92,33.84 -34.44,36.109 -16.35,2.109 -26.88,-12.019 -24.52,-27.391 2.53,-16.468 16.5,-32.257 33.26,-35.05 m -69.08,-127.059 c 5.71,-10.937 16.93,-20.23 28.14,-25.129 7.64,-3.351 17.04,-2.09 12.24,8 -5.51,11.59 -17.66,21.539 -29.4,26.352 -8.44,3.449 -16,0.398 -10.98,-9.223 m -4.64,-139.07 c 0,-10.828 8.8,-19.617 19.66,-19.617 10.85,0 19.66,8.789 19.66,19.617 0,10.84 -8.81,19.621 -19.66,19.621 -10.86,0 -19.66,-8.781 -19.66,-19.621 m 0,78.48 c 0,-10.828 8.8,-19.621 19.66,-19.621 5.56,0 10.54,2.363 14.11,6.07 -10.63,7.282 -20.96,14.961 -31.06,22.922 -1.57,-2.82 -2.71,-5.91 -2.71,-9.371 m -15.72,157.09 c -11.99,3.922 -16.7,-6.23 -13.23,-16.508 4.32,-12.82 15.41,-25.453 28.24,-30.23 11.57,-4.313 17.81,4.359 14.5,15.25 -4.08,13.418 -15.96,27.051 -29.51,31.488 m 4.25,75.59 c -2.54,14.281 -13.12,31.648 -28.33,34.891 -14.42,3.078 -18.39,-13 -16.21,-24.012 2.74,-13.82 12.72,-29.918 27.1,-33.86 14.44,-3.949 19.48,11.532 17.44,22.981 m -54.92,389.101 c -1.56,-11.59 2.8,-29.78 18.01,-27.62 15.88,2.26 25.47,21.31 27.19,35.58 1.43,11.93 -3.76,30.07 -19.22,26.83 -15.05,-3.15 -24.1,-20.87 -25.98,-34.79 m -6.31,-257.132 c 1.13,-13.75 9.24,-32.629 24.74,-34.899 16.07,-2.359 21.76,17.399 20.84,29.821 -1.03,14.031 -9.64,34.191 -25.93,35.418 -15.64,1.191 -20.65,-18.18 -19.65,-30.34 m -3.67,129.953 c -0.32,-12.821 5.68,-32.711 21.53,-32.75 16.5,-0.031 23.98,20.769 24.28,34.328 0.29,13.039 -6.26,33.761 -22.71,32.591 -15.79,-1.12 -22.77,-20.829 -23.1,-34.169 m 320.72,6.34 c 0.23,29.649 -23.62,56.679 -54.15,56.029 -30.2,-0.65 -53.78,-27.76 -54.13,-57.15 -0.35,-29.321 22.82,-56.27 53,-56.29 30.75,-0.023 55.04,27.52 55.28,57.411 m -43.11,248.159 c 19.16,1.58 39.64,16.5 41.33,36.72 1.62,19.26 -17.06,30.3 -34.46,28.56 -18.56,-1.85 -38.03,-16.03 -40.47,-35.42 -2.46,-19.41 15.88,-31.33 33.6,-29.86 m 41.65,-95.76 c 1.09,25.62 -20.45,46.14 -45.96,44.52 -25.82,-1.64 -48.37,-23.82 -50.04,-49.64 -1.66,-25.58 19.31,-46.71 44.91,-45.61 26.57,1.14 49.95,24.15 51.09,50.73 M 2280.8,484.641 c 3.51,-13.18 21.25,-19.75 33.3,-21.43 8.87,-1.242 28.4,0.039 26.02,13.449 -2.48,13.981 -21.83,20.949 -34.02,22.52 -9.09,1.172 -28.96,-0.801 -25.3,-14.539 m 19.3,-57.571 c 4.24,-9.781 20.79,-13.23 30.15,-14.672 4.67,-0.718 25.51,-2.726 22.77,6.661 -3.03,10.402 -21.72,14.082 -30.81,15.429 -4.65,0.692 -26.3,2.262 -22.11,-7.418 m 18.63,-33.109 c 5.13,-6.652 19.06,-8 26.8,-9.242 2.45,-0.391 22.1,-2.309 19.91,1.801 -3.75,7.039 -20.3,8.468 -27.37,9.601 -2.52,0.391 -22.47,1.91 -19.34,-2.16 m 25.37,-32.981 c 8.2,0 15.2,5.02 18.15,12.141 -12.64,1.719 -25.19,3.707 -37.56,6.238 0.68,-10.23 8.99,-18.379 19.41,-18.379 m -19.66,-36.742 c 0,-10.84 8.8,-19.617 19.66,-19.617 10.86,0 19.66,8.777 19.66,19.617 0,10.832 -8.8,19.621 -19.66,19.621 -10.86,0 -19.66,-8.789 -19.66,-19.621 m 0,-78.488 c 0,-10.828 8.8,-19.621 19.66,-19.621 10.86,0 19.66,8.793 19.66,19.621 0,10.84 -8.8,19.629 -19.66,19.629 -10.86,0 -19.66,-8.789 -19.66,-19.629 m 0,-75.961 c 0,-10.84 8.8,-19.617 19.66,-19.617 10.86,0 19.66,8.777 19.66,19.617 0,10.832 -8.8,19.621 -19.66,19.621 -10.86,0 -19.66,-8.789 -19.66,-19.621 m 51.19,508.852 c 0.15,-26.024 25.24,-43.672 49.71,-43.391 24.61,0.289 49.83,18.398 50.59,44.438 0.77,26.55 -24.64,45.011 -49.55,44.781 -25.13,-0.231 -50.9,-19.141 -50.75,-45.828 m 6.06,-119.75 c 0.21,-20.641 23.95,-30.5 41.64,-30.211 18.03,0.289 41.74,10.879 42.78,31.492 1.08,21.328 -23.45,31.93 -41.49,31.668 -18.41,-0.262 -43.14,-11.551 -42.93,-32.949 m 8.44,-88.11 c 0.22,-13.761 20.54,-17.191 30.95,-16.98 10.92,0.211 30.91,4.449 32.03,18.179 1.18,14.372 -20.4,18.219 -30.84,18.032 -10.93,-0.203 -32.37,-4.821 -32.14,-19.231 m 1.18,-57.609 c 0.26,-9.863 20.71,-10.152 27.36,-10 7.41,0.156 27.11,1.269 28.46,11.187 1.39,10.243 -21.01,10.852 -27.26,10.719 -6.97,-0.148 -28.84,-1.539 -28.56,-11.906 m 1.13,-32.113 c 0.28,-5.758 19.9,-4.848 23.96,-4.758 5.02,0.121 23.42,-0.352 24.98,5.859 1.33,5.32 -20.51,5.141 -23.87,5.059 -4.09,-0.09 -25.36,-0.25 -25.07,-6.16 m -28.98,443.019 c 0.08,-33.98 29.63,-61.551 63.3,-61.34 33.67,0.211 63.29,27.973 63.69,61.942 0.42,34.23 -29.17,62.308 -63.09,62.211 -34.07,-0.114 -63.98,-28.434 -63.9,-62.813 m -6.8,158.52 c -0.02,-38.207 32.48,-70.578 70.75,-70.571 38.16,0 70.45,32.262 70.32,70.371 -0.14,38.012 -32.46,70.152 -70.53,70.272 -38.13,0.11 -70.51,-32 -70.54,-70.072 m 160.32,-586.477 c -7.07,-1.133 -23.63,-2.562 -27.37,-9.601 -2.19,-4.11 17.45,-2.192 19.9,-1.801 7.75,1.242 21.67,2.59 26.81,9.242 3.13,4.07 -16.83,2.551 -19.34,2.16 m 7.81,16.277 c 9.37,1.442 25.91,4.891 30.16,14.672 4.19,9.68 -17.47,8.11 -22.12,7.418 -9.09,-1.347 -27.77,-5.027 -30.8,-15.429 -2.74,-9.387 18.09,-7.379 22.76,-6.661 m 16.15,50.813 c 12.06,1.68 29.79,8.25 33.3,21.43 3.66,13.738 -16.2,15.711 -25.3,14.539 -12.19,-1.571 -31.54,-8.539 -34.02,-22.52 -2.37,-13.41 17.16,-14.691 26.02,-13.449 m 15.68,79.617 c 15.23,1.762 33.14,12.371 35.85,28.633 2.74,16.539 -14.85,24.168 -28.73,22.777 -15.68,-1.59 -34.73,-12.797 -36.61,-29.867 -1.8,-16.32 15.95,-23.121 29.49,-21.543 m 24.17,-138.598 c -3.45,-3.601 12.68,-0.3 14.89,0.379 8.9,2.731 19.78,5.961 26.75,12.379 4.59,4.211 -11.5,0.84 -13.96,0.082 -8.93,-2.718 -21.05,-5.91 -27.68,-12.84 m 41.03,29.899 c 10.2,3.051 23.41,8.383 29.51,17.641 5.87,8.929 -11.61,6.05 -15.82,4.832 -10.32,-2.981 -25.02,-8.571 -30.55,-18.493 -4.85,-8.711 13.14,-5.097 16.86,-3.98 m 39,-2.328 c -4.94,-4.25 7.41,0.437 9.75,1.539 8.69,4.07 17.71,8.699 25.11,14.879 5.81,4.859 -5.84,0.383 -8.65,-0.949 -9,-4.25 -18.62,-8.95 -26.21,-15.469 m 43.35,33.527 c 9.8,4.602 20.2,11.133 26.98,19.723 6.22,7.89 -4.74,5.371 -9.47,3.199 -10.19,-4.66 -21.46,-11.531 -28.19,-20.672 -5.76,-7.84 6.75,-4.09 10.68,-2.25 m 35.05,51.332 c 11.21,4.899 22.43,14.192 28.13,25.129 5.03,9.621 -2.53,12.672 -10.97,9.223 -11.75,-4.813 -23.89,-14.762 -29.4,-26.352 -4.81,-10.09 4.6,-11.351 12.24,-8 m 24.96,-13 c -5.38,-6.539 0.53,-4.66 5.19,-1.512 8.55,5.793 16.72,12.84 23.34,20.782 5.18,6.199 1.38,6.172 -4.04,2.519 -8.96,-6.019 -17.63,-13.437 -24.49,-21.789 m 37.91,56.289 c -3.93,-7.058 -1.72,-11.48 5.83,-6.539 9.45,6.192 17.79,15.5 23.43,25.25 3.59,6.219 3.42,12.801 -4.69,7.75 -9.99,-6.219 -18.87,-16.219 -24.57,-26.461 m 17.87,251 c 15.49,2.27 23.61,21.149 24.74,34.899 1,12.16 -4.01,31.531 -19.65,30.34 -16.3,-1.227 -24.9,-21.387 -25.94,-35.418 -0.91,-12.422 4.78,-32.18 20.85,-29.821 m 5.3,199.021 c -16.44,1.17 -22.99,-19.552 -22.7,-32.591 0.3,-13.559 7.78,-34.359 24.28,-34.328 15.85,0.039 21.85,19.929 21.53,32.75 -0.34,13.34 -7.31,33.049 -23.11,34.169 m -32.07,100.97 c 1.72,-14.27 11.3,-33.32 27.19,-35.58 15.21,-2.16 19.56,16.03 18,27.62 -1.87,13.92 -10.93,31.64 -25.98,34.79 -15.46,3.24 -20.65,-14.9 -19.21,-26.83 m -9.72,-397.061 c -2.04,-11.449 2.99,-26.93 17.44,-22.981 14.37,3.942 24.35,20.04 27.09,33.86 2.19,11.012 -1.79,27.09 -16.2,24.012 -15.21,-3.243 -25.8,-20.61 -28.33,-34.891 m 4.24,-75.59 c -13.54,-4.437 -25.43,-18.07 -29.51,-31.488 -3.31,-10.891 2.94,-19.563 14.5,-15.25 12.83,4.777 23.92,17.41 28.25,30.23 3.47,10.278 -1.24,20.43 -13.24,16.508 m -43.62,686.971 c 4.78,-12.67 16.93,-24.52 29.62,-29.22 10.45,-3.86 16.25,2.98 12.08,13 -5,12.02 -16.28,23.04 -28.34,27.95 -9.82,4 -17.35,-1.11 -13.36,-11.73 m -37.13,-163.22 c -21.38,2.71 -34.97,-16.95 -33.29,-36.62 1.82,-21.24 18.73,-43.45 41.06,-45.36 21.26,-1.83 33.88,18.27 31.87,37.6 -2.13,20.56 -18.22,41.67 -39.64,44.38 m -18.52,112.43 c -14.65,2.9 -26.6,-7.53 -24.1,-22.56 2.74,-16.51 18.06,-31.47 34.55,-34.17 14.93,-2.46 25.9,8.97 22.92,23.74 -3.18,15.78 -17.59,29.87 -33.37,32.99 m -45.66,78.45 c 3.91,-14.39 19.85,-25.32 33.78,-28.49 10.93,-2.48 24.11,2.33 19.74,15.63 -4.46,13.59 -19.22,23.86 -32.63,27.24 -10.38,2.62 -24.55,-0.94 -20.89,-14.38 m 66.12,-759.811 c 3.71,14.051 -8.24,22.012 -21.18,19.422 -15.16,-3.031 -30.93,-15.851 -34.31,-31.351 -3.11,-14.258 9.85,-21.032 22.35,-18.168 14.54,3.328 29.25,15.379 33.14,30.097 m 22.63,110.789 c 2.36,15.372 -8.16,29.5 -24.51,27.391 -17.52,-2.269 -32.28,-18.969 -34.44,-36.109 -1.97,-15.641 9.45,-29.039 25.69,-26.332 16.77,2.793 30.73,18.582 33.26,35.05 m -12.12,231.282 c 22.59,0.031 36.15,23.09 35.75,43.539 -0.39,20.73 -14.7,43.901 -37.3,44.871 -23.14,0.98 -37.48,-22.47 -37.15,-43.332 0.33,-21.219 15.39,-45.11 38.7,-45.078 m 29.25,-98.91 c 1.15,18.109 -10.59,38.058 -30.69,37.14 -20.91,-0.949 -35.48,-22.222 -36.49,-41.652 -0.96,-18.438 11.56,-38.348 31.97,-36.547 20.14,1.777 34.01,22.156 35.21,41.059 m -85.84,-315.668 c -12.55,-3.192 -28.4,-12.071 -32.89,-25.012 -4.25,-12.231 11.5,-12.5 19.36,-10.352 12.17,3.34 26.69,11.703 31.76,23.864 5.09,12.187 -9.78,13.636 -18.23,11.5 m -83.87,256.976 c 26.84,1.192 48.85,24.942 49.89,51.383 1.04,26.219 -19.83,49.418 -46.6,48.809 -27.51,-0.629 -50.23,-25.04 -50.94,-52.09 -0.68,-26.391 20.78,-49.289 47.65,-48.102 m 35.8,-89.098 c 2.15,22.348 -17.34,38.59 -38.84,37.2 -22.7,-1.481 -44.66,-20.211 -46.14,-43.532 -1.41,-22.281 18.55,-37.699 39.8,-35.91 21.99,1.84 43.03,19.742 45.18,42.242 m 21.18,292.54 c -0.35,29.39 -23.93,56.5 -54.13,57.15 -30.54,0.65 -54.39,-26.38 -54.15,-56.029 0.23,-29.891 24.53,-57.434 55.27,-57.411 30.19,0.02 53.36,26.969 53.01,56.29 m -65.18,249.28 c 17.73,-1.47 36.06,10.45 33.61,29.86 -2.45,19.39 -21.92,33.57 -40.47,35.42 -17.4,1.74 -36.08,-9.3 -34.47,-28.56 1.69,-20.22 22.17,-35.14 41.33,-36.72 m 4.31,-51.24 c -25.51,1.62 -47.05,-18.9 -45.95,-44.52 1.13,-26.58 24.52,-49.59 51.09,-50.73 25.6,-1.1 46.57,20.03 44.91,45.61 -1.67,25.82 -24.23,48 -50.05,49.64 m 262.03,-541.482 c -2.42,-6.656 -2.72,-18.738 7.33,-12.957 10.44,6 18.23,18.18 22.45,29.168 2.26,5.879 3.97,19.41 -6.22,14.191 -11.13,-5.691 -19.41,-19 -23.56,-30.402 m 18.4,-40.109 c -2.45,-4.16 -5.36,-11.891 0.94,-5.867 7.35,7.007 13.49,15.668 18.63,24.386 2.03,3.442 6.11,12.832 -0.08,7.032 -7.73,-7.239 -14.13,-16.461 -19.49,-25.551 m 19.36,118.75 c 11.39,4.929 17.79,20.359 20.36,31.621 1.44,6.289 2.83,24.848 -8.68,20.93 -12.15,-4.141 -18.93,-21.18 -21.38,-32.59 -1.44,-6.68 -1.99,-25.032 9.7,-19.961 m 15.9,-46.199 c -1.35,-3.411 -5.2,-17.532 1.73,-11.36 7.81,6.949 13.03,17.719 16.89,27.27 1.12,2.789 5.6,17.828 -0.96,12.488 -8.36,-6.82 -13.77,-18.59 -17.66,-28.398 m 21.83,186.57 c 0.73,7.687 0.26,28.301 -11.9,26.808 -12.79,-1.558 -17.36,-21.968 -18.28,-32.23 -0.69,-7.66 0.24,-29.301 12.85,-26.328 12.07,2.84 16.34,21.39 17.33,31.75 m -6.56,229.54 c -1.7,10.91 -7.04,28.07 -18.84,32.01 -12.26,4.1 -12.34,-16.42 -11.3,-23.51 1.6,-10.92 7.27,-29.88 19.82,-32.75 11.93,-2.73 11.4,17.31 10.32,24.25 m -5.11,-82.93 c -12.83,1.47 -14.96,-20.532 -14.73,-29.052 0.25,-9.347 3.52,-30.918 16.41,-30.871 12.27,0.043 14.04,20.543 13.79,29.192 -0.28,9.511 -3.23,29.321 -15.47,30.731 m 22.58,-301.95 c -0.98,-2.43 -5.14,-15 -1.85,-10.371 5.31,7.461 8.93,16.41 12.3,24.879 0.89,2.222 4.65,14.66 2.23,11.371 -5.59,-7.629 -9.17,-17.168 -12.68,-25.879 m 18.64,137.68 c 8.52,3.398 10.15,20.57 10.95,28.3 0.42,4.11 2.07,25.09 -5.69,23.469 -8.92,-1.859 -10.8,-21.59 -11.52,-28.719 -0.38,-3.832 -1.6,-26.191 6.26,-23.05 m 7.26,-57.2 c -0.65,-2.613 -2.62,-17.91 -0.6,-15.382 5.43,6.8 7.43,17.402 9.46,25.679 0.62,2.532 2.35,17.743 0.85,16.153 -5.91,-6.27 -7.71,-18.321 -9.71,-26.45 m 15.73,90.528 c -0.27,-2.598 -0.4,-21.738 1.64,-20.149 5.54,4.309 5.55,18.442 6.23,24.899 0.25,2.441 1.18,21.633 -1.48,20.519 -5.56,-2.339 -5.83,-19.968 -6.39,-25.269" style="fill:#0b3b6a;fill-opacity:1;fill-rule:nonzero;stroke:none" id="path14"/></g></g></svg>