<svg xmlns="http://www.w3.org/2000/svg" version="1.0" width="360" height="404" viewBox="0 0 360.000000 404.000000" preserveAspectRatio="xMidYMid meet">

<g transform="translate(0.000000,404.000000) scale(0.100000,-0.100000)" fill="#1b5496" stroke="none">
<path d="M2680 3550 l0 -280 280 0 280 0 0 140 c0 130 -1 140 -19 140 -14 0 -22 -14 -35 -57 -18 -68 -62 -121 -124 -153 -37 -19 -54 -22 -117 -18 -65 4 -80 9 -119 39 -53 40 -96 117 -98 175 -3 117 82 225 192 243 26 5 36 12 38 29 3 22 3 22 -137 22 l-141 0 0 -280z" fill="#1b5496"/>
<path d="M1907 3623 c-4 -3 -7 -262 -7 -575 l0 -568 575 0 575 0 0 285 0 285 -50 0 c-44 0 -50 -2 -50 -21 0 -32 -29 -140 -48 -179 -33 -69 -102 -149 -163 -189 -347 -232 -802 72 -718 481 38 187 204 342 390 365 l64 8 0 55 0 55 -281 3 c-154 1 -283 -1 -287 -5z" fill="#1b5496"/>
<path d="M320 2090 l0 -1170 1165 0 1165 0 0 580 0 580 -108 0 -109 0 -10 -92 c-23 -200 -82 -346 -202 -502 -38 -48 -91 -99 -200 -188 -28 -23 -179 -96 -241 -116 -78 -26 -225 -52 -289 -52 -68 0 -227 28 -296 51 -357 122 -602 424 -644 794 -27 231 43 482 184 664 84 109 228 229 335 278 118 55 212 81 325 91 l90 7 3 123 3 122 -586 0 -585 0 0 -1170z" fill="#1b5496"/>
<path d="M1058 672 c-48 -29 -52 -52 -56 -269 l-3 -203 55 0 56 0 0 125 0 125 55 0 55 0 0 50 0 50 -55 0 c-38 0 -55 4 -55 13 0 24 24 37 67 37 l43 0 0 45 0 45 -67 -1 c-44 -1 -78 -7 -95 -17z" fill="#1b5496"/>
<path d="M1510 546 c0 -98 -8 -106 -106 -106 l-74 0 0 -35 0 -35 84 0 c98 0 96 2 96 -101 l0 -69 35 0 34 0 3 83 3 82 88 3 87 3 0 34 0 35 -78 0 c-47 0 -83 5 -90 12 -7 7 -12 43 -12 90 l0 78 -35 0 -35 0 0 -74z" fill="#1b5496"/>
<path d="M2413 544 c-50 -18 -88 -60 -103 -112 -5 -20 -10 -81 -10 -134 l0 -98 55 0 55 0 0 105 c0 100 1 107 25 131 19 18 31 23 48 19 40 -12 47 -33 47 -147 l0 -108 55 0 55 0 0 110 c0 145 -16 187 -86 223 -46 24 -95 28 -141 11z" fill="#1b5496"/>
<path d="M395 539 c-29 -7 -46 -18 -58 -38 -37 -63 -11 -114 78 -152 80 -35 71 -53 -28 -57 l-77 -3 0 -45 0 -46 109 4 c106 3 111 4 140 32 61 58 36 121 -65 167 -88 40 -86 59 6 59 l70 0 0 45 0 45 -67 -1 c-38 -1 -86 -5 -108 -10z" fill="#1b5496"/>
<path d="M730 537 c-36 -10 -49 -19 -62 -46 -29 -57 0 -105 89 -146 75 -34 66 -49 -30 -53 l-77 -3 0 -45 0 -46 111 4 111 3 29 33 c55 62 31 116 -74 166 -80 38 -76 56 13 56 l70 0 0 45 0 45 -67 -1 c-38 0 -88 -6 -113 -12z" fill="#1b5496"/>
<path d="M1894 535 c-4 -8 -4 -64 -2 -123 4 -112 14 -143 63 -184 44 -37 149 -41 203 -7 13 8 33 30 45 49 19 31 22 49 22 155 l0 120 -50 0 -50 0 -5 -113 c-4 -98 -8 -116 -24 -128 -28 -20 -49 -17 -74 9 -20 21 -22 34 -22 130 l0 107 -50 0 c-36 0 -52 -4 -56 -15z" fill="#1b5496"/>
</g>
</svg>